<svg xmlns="http://www.w3.org/2000/svg" xmlns:xlink="http://www.w3.org/1999/xlink" width="500" zoomAndPan="magnify" viewBox="0 0 375 374.999991" height="500" preserveAspectRatio="xMidYMid meet" version="1.0"><defs><clipPath id="4d91db73c7"><path d="M 112.5 112.5 L 262.5 112.5 L 262.5 262.5 L 112.5 262.5 Z M 112.5 112.5 " clip-rule="nonzero"/></clipPath><clipPath id="48409dcb97"><path d="M 139.882812 139.882812 L 235.132812 139.882812 L 235.132812 235.132812 L 139.882812 235.132812 Z M 139.882812 139.882812 " clip-rule="nonzero"/></clipPath></defs><g clip-path="url(#4d91db73c7)"><path fill="#ffffff" d="M 262.507812 201.90625 C 247.664062 201.90625 240.226562 219.859375 250.722656 230.355469 L 230.351562 250.730469 C 219.851562 240.230469 201.902344 247.667969 201.902344 262.511719 L 173.105469 262.511719 C 173.105469 247.667969 155.15625 240.230469 144.65625 250.730469 L 124.28125 230.355469 C 134.78125 219.859375 127.34375 201.90625 112.5 201.90625 L 112.5 173.105469 C 127.34375 173.105469 134.78125 155.15625 124.28125 144.65625 L 144.65625 124.28125 C 155.15625 134.78125 173.105469 127.34375 173.105469 112.5 L 201.90625 112.5 C 201.90625 127.34375 219.859375 134.78125 230.355469 124.28125 L 250.730469 144.65625 C 240.230469 155.15625 247.667969 173.105469 262.511719 173.105469 L 262.511719 201.90625 Z M 262.507812 201.90625 " fill-opacity="1" fill-rule="nonzero"/></g><g clip-path="url(#48409dcb97)"><path fill="#5e17eb" d="M 216.179688 216.179688 C 208.515625 223.839844 198.332031 228.058594 187.496094 228.058594 C 176.660156 228.058594 166.476562 223.839844 158.8125 216.179688 C 151.152344 208.515625 146.933594 198.332031 146.933594 187.496094 C 146.933594 176.660156 151.152344 166.476562 158.8125 158.8125 C 166.476562 151.152344 176.660156 146.933594 187.496094 146.933594 C 198.332031 146.933594 208.515625 151.152344 216.179688 158.8125 C 223.839844 166.476562 228.058594 176.660156 228.058594 187.496094 C 228.058594 198.332031 223.839844 208.515625 216.179688 216.179688 Z M 187.496094 139.878906 C 174.777344 139.878906 162.820312 144.832031 153.824219 153.824219 C 144.832031 162.820312 139.878906 174.777344 139.878906 187.496094 C 139.878906 200.214844 144.832031 212.171875 153.824219 221.167969 C 162.820312 230.160156 174.777344 235.113281 187.496094 235.113281 C 200.214844 235.113281 212.171875 230.160156 221.167969 221.167969 C 230.160156 212.171875 235.113281 200.214844 235.113281 187.496094 C 235.113281 174.777344 230.160156 162.820312 221.167969 153.824219 C 212.171875 144.832031 200.214844 139.878906 187.496094 139.878906 " fill-opacity="1" fill-rule="nonzero"/></g><path fill="#5e17eb" d="M 207.648438 170.261719 L 180.238281 197.671875 L 168.804688 186.242188 C 167.257812 184.691406 164.742188 184.691406 163.195312 186.242188 C 161.644531 187.792969 161.644531 190.304688 163.195312 191.851562 L 177.429688 206.089844 C 178.207031 206.863281 179.222656 207.253906 180.238281 207.253906 C 181.253906 207.253906 182.269531 206.863281 183.042969 206.089844 L 213.261719 175.871094 C 214.8125 174.324219 214.8125 171.808594 213.261719 170.261719 C 211.710938 168.710938 209.199219 168.710938 207.648438 170.261719 " fill-opacity="1" fill-rule="nonzero"/></svg>