<svg xmlns="http://www.w3.org/2000/svg" xmlns:xlink="http://www.w3.org/1999/xlink" width="500" zoomAndPan="magnify" viewBox="0 0 375 374.999991" height="500" preserveAspectRatio="xMidYMid meet" version="1.0"><defs><clipPath id="74681df4c9"><path d="M 112.5 112.5 L 262.5 112.5 L 262.5 262.5 L 112.5 262.5 Z M 112.5 112.5 " clip-rule="nonzero"/></clipPath><clipPath id="2d35dd15ba"><path d="M 150.035156 144.679688 L 224.960938 144.679688 L 224.960938 230.179688 L 150.035156 230.179688 Z M 150.035156 144.679688 " clip-rule="nonzero"/></clipPath><clipPath id="57045dc03a"><path d="M 187.496094 144.679688 L 202.679688 161.464844 L 224.960938 166.085938 L 217.863281 187.496094 L 224.960938 208.902344 L 202.679688 213.523438 L 187.496094 230.308594 L 172.3125 213.523438 L 150.035156 208.902344 L 157.128906 187.496094 L 150.035156 166.085938 L 172.3125 161.464844 Z M 187.496094 144.679688 " clip-rule="nonzero"/></clipPath></defs><g clip-path="url(#74681df4c9)"><path fill="#d9d9d9" d="M 262.507812 201.90625 C 247.664062 201.90625 240.226562 219.859375 250.722656 230.355469 L 230.351562 250.730469 C 219.851562 240.230469 201.902344 247.667969 201.902344 262.511719 L 173.105469 262.511719 C 173.105469 247.667969 155.15625 240.230469 144.65625 250.730469 L 124.28125 230.355469 C 134.78125 219.859375 127.34375 201.90625 112.5 201.90625 L 112.5 173.105469 C 127.34375 173.105469 134.78125 155.15625 124.28125 144.65625 L 144.65625 124.28125 C 155.15625 134.78125 173.105469 127.34375 173.105469 112.5 L 201.90625 112.5 C 201.90625 127.34375 219.859375 134.78125 230.355469 124.28125 L 250.730469 144.65625 C 240.230469 155.15625 247.667969 173.105469 262.511719 173.105469 L 262.511719 201.90625 Z M 262.507812 201.90625 " fill-opacity="1" fill-rule="nonzero"/></g><g clip-path="url(#2d35dd15ba)"><g clip-path="url(#57045dc03a)"><path stroke-linecap="butt" transform="matrix(0.75, 0, 0, 0.75, 150.034624, 144.679913)" fill="none" stroke-linejoin="miter" d="M 49.948629 -0.000300532 L 70.193422 22.379909 L 99.901758 28.541368 L 90.438215 57.088245 L 99.901758 85.629913 L 70.193422 91.791372 L 49.948629 114.171582 L 29.703836 91.791372 L 0.000709336 85.629913 L 9.459043 57.088245 L 0.000709336 28.541368 L 29.703836 22.379909 Z M 49.948629 -0.000300532 " stroke="#5e17eb" stroke-width="10" stroke-opacity="1" stroke-miterlimit="4"/></g></g><path stroke-linecap="round" transform="matrix(0.44843, 0.601175, -0.601175, 0.44843, 209.101808, 220.261039)" fill="none" stroke-linejoin="miter" d="M 1.999512 1.998709 L 23.532921 1.998652 " stroke="#5e17eb" stroke-width="4" stroke-opacity="1" stroke-miterlimit="4"/><path stroke-linecap="round" transform="matrix(0.518074, 0.542309, -0.542309, 0.518074, 220.434468, 220.121645)" fill="none" stroke-linejoin="miter" d="M 2.000448 1.999099 L 16.879414 2.001637 " stroke="#5e17eb" stroke-width="4" stroke-opacity="1" stroke-miterlimit="4"/><path stroke-linecap="round" transform="matrix(0.440853, 0.606752, -0.606752, 0.440853, 204.951745, 229.899595)" fill="none" stroke-linejoin="miter" d="M 2.002288 1.999773 L 16.880048 2.000295 " stroke="#5e17eb" stroke-width="4" stroke-opacity="1" stroke-miterlimit="4"/><path stroke-linecap="round" transform="matrix(-0.351352, -0.66261, 0.66261, -0.351352, 164.858826, 157.010248)" fill="none" stroke-linejoin="miter" d="M 2.002731 2.000132 L 23.533425 1.997791 " stroke="#5e17eb" stroke-width="4" stroke-opacity="1" stroke-miterlimit="4"/><path stroke-linecap="round" transform="matrix(-0.42917, -0.615071, 0.615071, -0.42917, 153.63783, 155.417171)" fill="none" stroke-linejoin="miter" d="M 2.002005 1.998439 L 16.879621 2.002044 " stroke="#5e17eb" stroke-width="4" stroke-opacity="1" stroke-miterlimit="4"/><path stroke-linecap="round" transform="matrix(-0.343013, -0.666965, 0.666965, -0.343013, 170.432293, 148.118604)" fill="none" stroke-linejoin="miter" d="M 2.000057 2.002781 L 16.877895 1.999518 " stroke="#5e17eb" stroke-width="4" stroke-opacity="1" stroke-miterlimit="4"/></svg>